<?xml version="1.0" standalone="no"?>
<!DOCTYPE svg PUBLIC "-//W3C//DTD SVG 20010904//EN"
 "http://www.w3.org/TR/2001/REC-SVG-20010904/DTD/svg10.dtd">
<svg version="1.0" xmlns="http://www.w3.org/2000/svg"
 width="411.000000pt" height="411.000000pt" viewBox="0 0 411.000000 411.000000"
 preserveAspectRatio="xMidYMid meet">
<metadata>
Created by potrace 1.15, written by Peter Selinger 2001-2017
</metadata>
<g transform="translate(0.000000,411.000000) scale(0.100000,-0.100000)"
fill="#000000f" stroke="none">
<path d="M2695 3125 c-66 -14 -121 -34 -205 -72 -88 -40 -94 -44 -190 -126
-71 -62 -96 -90 -114 -131 -30 -68 -73 -96 -147 -96 -30 0 -59 4 -64 8 -6 4
-34 40 -64 80 -29 39 -56 72 -59 72 -4 1 -36 27 -72 60 -36 33 -92 73 -125 90
-33 17 -67 34 -75 39 -67 37 -218 70 -323 71 -72 0 -86 -3 -160 -40 -174 -85
-285 -245 -292 -420 -1 -25 -6 -53 -10 -63 -4 -10 -5 -76 -2 -145 4 -98 12
-147 32 -212 15 -47 30 -89 35 -95 4 -5 17 -36 28 -67 12 -32 26 -66 31 -75 5
-10 22 -43 36 -73 67 -134 245 -377 382 -520 93 -97 359 -318 569 -475 114
-84 106 -83 188 -24 39 29 85 62 101 73 32 22 137 105 170 134 11 10 43 34 70
53 28 18 51 37 53 41 2 3 56 51 120 106 64 56 139 125 166 154 67 71 193 231
235 296 18 28 37 52 42 52 5 0 9 6 9 14 0 7 6 19 13 25 15 11 84 147 137 266
17 39 36 79 41 89 15 26 45 139 54 201 9 59 7 214 -2 229 -4 6 -6 26 -4 46 3
41 -36 161 -73 224 -37 63 -128 141 -220 187 -74 37 -83 39 -165 38 -47 0
-113 -7 -146 -14z m-770 -381 c9 -15 12 -23 6 -20 -11 7 -35 46 -28 46 3 0 12
-12 22 -26z"/>
</g>
</svg>
